<mxfile host="Electron" agent="Mozilla/5.0 (X11; Linux x86_64) AppleWebKit/537.36 (KHTML, like Gecko) draw.io/26.1.1 Chrome/132.0.6834.210 Electron/34.3.3 Safari/537.36" version="26.1.1">
  <diagram id="C5RBs43oDa-KdzZeNtuy" name="Page-1">
    <mxGraphModel dx="2501" dy="833" grid="1" gridSize="10" guides="1" tooltips="1" connect="1" arrows="1" fold="1" page="1" pageScale="1" pageWidth="827" pageHeight="1169" math="0" shadow="0">
      <root>
        <mxCell id="WIyWlLk6GJQsqaUBKTNV-0" />
        <mxCell id="WIyWlLk6GJQsqaUBKTNV-1" parent="WIyWlLk6GJQsqaUBKTNV-0" />
        <mxCell id="u7ZP3ORcq0w42bvxAeRG-18" value="" style="edgeStyle=orthogonalEdgeStyle;rounded=0;orthogonalLoop=1;jettySize=auto;html=1;" parent="WIyWlLk6GJQsqaUBKTNV-1" source="WIyWlLk6GJQsqaUBKTNV-3" target="u7ZP3ORcq0w42bvxAeRG-17" edge="1">
          <mxGeometry relative="1" as="geometry" />
        </mxCell>
        <mxCell id="u7ZP3ORcq0w42bvxAeRG-35" value="has" style="edgeLabel;html=1;align=center;verticalAlign=middle;resizable=0;points=[];" parent="u7ZP3ORcq0w42bvxAeRG-18" vertex="1" connectable="0">
          <mxGeometry x="-0.2" y="1" relative="1" as="geometry">
            <mxPoint y="-14" as="offset" />
          </mxGeometry>
        </mxCell>
        <mxCell id="u7ZP3ORcq0w42bvxAeRG-19" value="" style="edgeStyle=orthogonalEdgeStyle;rounded=0;orthogonalLoop=1;jettySize=auto;html=1;" parent="WIyWlLk6GJQsqaUBKTNV-1" source="WIyWlLk6GJQsqaUBKTNV-3" target="WIyWlLk6GJQsqaUBKTNV-6" edge="1">
          <mxGeometry relative="1" as="geometry" />
        </mxCell>
        <mxCell id="WIyWlLk6GJQsqaUBKTNV-3" value="Homepage" style="rounded=1;whiteSpace=wrap;html=1;fontSize=12;glass=0;strokeWidth=1;shadow=0;fillColor=light-dark(#FFFA72,#000000);" parent="WIyWlLk6GJQsqaUBKTNV-1" vertex="1">
          <mxGeometry x="160" y="80" width="120" height="40" as="geometry" />
        </mxCell>
        <mxCell id="u7ZP3ORcq0w42bvxAeRG-9" value="" style="edgeStyle=orthogonalEdgeStyle;rounded=0;orthogonalLoop=1;jettySize=auto;html=1;" parent="WIyWlLk6GJQsqaUBKTNV-1" source="WIyWlLk6GJQsqaUBKTNV-6" target="WIyWlLk6GJQsqaUBKTNV-11" edge="1">
          <mxGeometry relative="1" as="geometry" />
        </mxCell>
        <mxCell id="u7ZP3ORcq0w42bvxAeRG-11" value="Yes" style="edgeLabel;html=1;align=center;verticalAlign=middle;resizable=0;points=[];" parent="u7ZP3ORcq0w42bvxAeRG-9" vertex="1" connectable="0">
          <mxGeometry x="-0.05" y="1" relative="1" as="geometry">
            <mxPoint x="9" as="offset" />
          </mxGeometry>
        </mxCell>
        <mxCell id="WIyWlLk6GJQsqaUBKTNV-6" value="Start Btn&lt;div&gt;&amp;nbsp;Clicked&lt;/div&gt;" style="rhombus;whiteSpace=wrap;html=1;shadow=0;fontFamily=Helvetica;fontSize=12;align=center;strokeWidth=1;spacing=6;spacingTop=-4;fillColor=light-dark(#6CC29C,var(--ge-dark-color, #121212));" parent="WIyWlLk6GJQsqaUBKTNV-1" vertex="1">
          <mxGeometry x="170" y="170" width="100" height="80" as="geometry" />
        </mxCell>
        <mxCell id="u7ZP3ORcq0w42bvxAeRG-23" value="" style="edgeStyle=orthogonalEdgeStyle;rounded=0;orthogonalLoop=1;jettySize=auto;html=1;" parent="WIyWlLk6GJQsqaUBKTNV-1" source="WIyWlLk6GJQsqaUBKTNV-11" target="u7ZP3ORcq0w42bvxAeRG-22" edge="1">
          <mxGeometry relative="1" as="geometry" />
        </mxCell>
        <mxCell id="u7ZP3ORcq0w42bvxAeRG-34" value="has" style="edgeLabel;html=1;align=center;verticalAlign=middle;resizable=0;points=[];" parent="u7ZP3ORcq0w42bvxAeRG-23" vertex="1" connectable="0">
          <mxGeometry x="-0.0824" y="-2" relative="1" as="geometry">
            <mxPoint x="2" y="-12" as="offset" />
          </mxGeometry>
        </mxCell>
        <mxCell id="u7ZP3ORcq0w42bvxAeRG-37" style="edgeStyle=orthogonalEdgeStyle;rounded=0;orthogonalLoop=1;jettySize=auto;html=1;exitX=0;exitY=0.5;exitDx=0;exitDy=0;entryX=1;entryY=0.5;entryDx=0;entryDy=0;" parent="WIyWlLk6GJQsqaUBKTNV-1" source="WIyWlLk6GJQsqaUBKTNV-11" target="u7ZP3ORcq0w42bvxAeRG-30" edge="1">
          <mxGeometry relative="1" as="geometry" />
        </mxCell>
        <mxCell id="u7ZP3ORcq0w42bvxAeRG-39" style="edgeStyle=elbowEdgeStyle;rounded=0;orthogonalLoop=1;jettySize=auto;html=1;exitX=0.75;exitY=1;exitDx=0;exitDy=0;entryX=0.5;entryY=0;entryDx=0;entryDy=0;" parent="WIyWlLk6GJQsqaUBKTNV-1" source="WIyWlLk6GJQsqaUBKTNV-11" target="u7ZP3ORcq0w42bvxAeRG-24" edge="1">
          <mxGeometry relative="1" as="geometry">
            <Array as="points">
              <mxPoint x="250" y="630" />
            </Array>
          </mxGeometry>
        </mxCell>
        <mxCell id="KHbmAOxIONu6uDPBs_3P-3" value="" style="edgeStyle=orthogonalEdgeStyle;rounded=0;orthogonalLoop=1;jettySize=auto;html=1;exitX=0.25;exitY=1;exitDx=0;exitDy=0;entryX=0.5;entryY=0;entryDx=0;entryDy=0;" edge="1" parent="WIyWlLk6GJQsqaUBKTNV-1" source="WIyWlLk6GJQsqaUBKTNV-11" target="KHbmAOxIONu6uDPBs_3P-2">
          <mxGeometry relative="1" as="geometry">
            <mxPoint x="190" y="510" as="sourcePoint" />
            <mxPoint x="70" y="730" as="targetPoint" />
            <Array as="points">
              <mxPoint x="190" y="680" />
            </Array>
          </mxGeometry>
        </mxCell>
        <mxCell id="WIyWlLk6GJQsqaUBKTNV-11" value="MainPage" style="rounded=1;whiteSpace=wrap;html=1;fontSize=12;glass=0;strokeWidth=1;shadow=0;fillColor=light-dark(#FFFA72,#000000);" parent="WIyWlLk6GJQsqaUBKTNV-1" vertex="1">
          <mxGeometry x="160" y="440" width="120" height="40" as="geometry" />
        </mxCell>
        <object label="Legend" Pages="color=&quot;yellow&quot;" id="u7ZP3ORcq0w42bvxAeRG-3">
          <mxCell style="swimlane;whiteSpace=wrap;html=1;fillColor=light-dark(#FFFFFF,var(--ge-dark-color, #121212));" parent="WIyWlLk6GJQsqaUBKTNV-1" vertex="1">
            <mxGeometry x="620" y="30" width="200" height="240" as="geometry" />
          </mxCell>
        </object>
        <mxCell id="u7ZP3ORcq0w42bvxAeRG-5" value="" style="whiteSpace=wrap;html=1;aspect=fixed;fillColor=light-dark(#FFFA72,#000000);" parent="u7ZP3ORcq0w42bvxAeRG-3" vertex="1">
          <mxGeometry x="27.5" y="40" width="30" height="30" as="geometry" />
        </mxCell>
        <mxCell id="u7ZP3ORcq0w42bvxAeRG-6" value="Pages" style="text;html=1;align=left;verticalAlign=middle;resizable=0;points=[];autosize=1;strokeColor=none;fillColor=none;" parent="u7ZP3ORcq0w42bvxAeRG-3" vertex="1">
          <mxGeometry x="102.5" y="40" width="60" height="30" as="geometry" />
        </mxCell>
        <mxCell id="u7ZP3ORcq0w42bvxAeRG-7" value="" style="whiteSpace=wrap;html=1;aspect=fixed;fillColor=light-dark(#6CC29C,#000000);" parent="u7ZP3ORcq0w42bvxAeRG-3" vertex="1">
          <mxGeometry x="27.5" y="90" width="30" height="30" as="geometry" />
        </mxCell>
        <mxCell id="u7ZP3ORcq0w42bvxAeRG-8" value="Actions" style="text;html=1;align=left;verticalAlign=middle;resizable=0;points=[];autosize=1;strokeColor=none;fillColor=light-dark(#FFFFFF,#000000);" parent="u7ZP3ORcq0w42bvxAeRG-3" vertex="1">
          <mxGeometry x="102.5" y="90" width="60" height="30" as="geometry" />
        </mxCell>
        <mxCell id="u7ZP3ORcq0w42bvxAeRG-15" value="" style="whiteSpace=wrap;html=1;aspect=fixed;fillColor=light-dark(#FF706B,#000000);" parent="u7ZP3ORcq0w42bvxAeRG-3" vertex="1">
          <mxGeometry x="27.5" y="140" width="30" height="30" as="geometry" />
        </mxCell>
        <mxCell id="u7ZP3ORcq0w42bvxAeRG-16" value="Methods" style="text;html=1;align=left;verticalAlign=middle;resizable=0;points=[];autosize=1;strokeColor=none;fillColor=light-dark(#FFFFFF,#000000);" parent="u7ZP3ORcq0w42bvxAeRG-3" vertex="1">
          <mxGeometry x="102.5" y="140" width="70" height="30" as="geometry" />
        </mxCell>
        <mxCell id="u7ZP3ORcq0w42bvxAeRG-28" value="" style="whiteSpace=wrap;html=1;aspect=fixed;fillColor=light-dark(#639CD1,#000000);" parent="u7ZP3ORcq0w42bvxAeRG-3" vertex="1">
          <mxGeometry x="27.5" y="190" width="30" height="30" as="geometry" />
        </mxCell>
        <mxCell id="u7ZP3ORcq0w42bvxAeRG-29" value="Components" style="text;html=1;align=left;verticalAlign=middle;resizable=0;points=[];autosize=1;strokeColor=none;fillColor=light-dark(#FFFFFF,#000000);" parent="u7ZP3ORcq0w42bvxAeRG-3" vertex="1">
          <mxGeometry x="102.5" y="190" width="90" height="30" as="geometry" />
        </mxCell>
        <mxCell id="u7ZP3ORcq0w42bvxAeRG-17" value="Start" style="shape=process;whiteSpace=wrap;html=1;backgroundOutline=1;fillColor=light-dark(#FF706B,#000000);rounded=1;glass=0;strokeWidth=1;shadow=0;" parent="WIyWlLk6GJQsqaUBKTNV-1" vertex="1">
          <mxGeometry x="360" y="70" width="120" height="60" as="geometry" />
        </mxCell>
        <mxCell id="u7ZP3ORcq0w42bvxAeRG-22" value="&lt;div&gt;Home&lt;/div&gt;Shopping Cart&lt;br&gt;&lt;div&gt;Products&lt;/div&gt;" style="shape=process;whiteSpace=wrap;html=1;backgroundOutline=1;fillColor=light-dark(#FF706B,#000000);rounded=1;glass=0;strokeWidth=1;shadow=0;" parent="WIyWlLk6GJQsqaUBKTNV-1" vertex="1">
          <mxGeometry x="450" y="430" width="120" height="60" as="geometry" />
        </mxCell>
        <mxCell id="u7ZP3ORcq0w42bvxAeRG-27" value="" style="edgeStyle=orthogonalEdgeStyle;rounded=0;orthogonalLoop=1;jettySize=auto;html=1;" parent="WIyWlLk6GJQsqaUBKTNV-1" source="u7ZP3ORcq0w42bvxAeRG-24" target="u7ZP3ORcq0w42bvxAeRG-26" edge="1">
          <mxGeometry relative="1" as="geometry" />
        </mxCell>
        <mxCell id="u7ZP3ORcq0w42bvxAeRG-33" value="Yes" style="edgeLabel;html=1;align=center;verticalAlign=middle;resizable=0;points=[];" parent="u7ZP3ORcq0w42bvxAeRG-27" vertex="1" connectable="0">
          <mxGeometry x="-0.22" y="2" relative="1" as="geometry">
            <mxPoint x="8" as="offset" />
          </mxGeometry>
        </mxCell>
        <mxCell id="u7ZP3ORcq0w42bvxAeRG-24" value="&lt;div&gt;&lt;span style=&quot;background-color: transparent; color: light-dark(rgb(0, 0, 0), rgb(255, 255, 255));&quot;&gt;Shopping&lt;/span&gt;&lt;/div&gt;&lt;div&gt;Cart&lt;div&gt;&lt;span style=&quot;background-color: transparent; color: light-dark(rgb(0, 0, 0), rgb(255, 255, 255));&quot;&gt;Clicked&lt;/span&gt;&lt;/div&gt;&lt;/div&gt;" style="rhombus;whiteSpace=wrap;html=1;fillColor=light-dark(#6CC29C,#000000);rounded=1;glass=0;strokeWidth=1;shadow=0;" parent="WIyWlLk6GJQsqaUBKTNV-1" vertex="1">
          <mxGeometry x="460" y="690" width="120" height="100" as="geometry" />
        </mxCell>
        <mxCell id="KHbmAOxIONu6uDPBs_3P-1" value="" style="edgeStyle=orthogonalEdgeStyle;rounded=0;orthogonalLoop=1;jettySize=auto;html=1;" edge="1" parent="WIyWlLk6GJQsqaUBKTNV-1" source="u7ZP3ORcq0w42bvxAeRG-26" target="KHbmAOxIONu6uDPBs_3P-0">
          <mxGeometry relative="1" as="geometry" />
        </mxCell>
        <mxCell id="u7ZP3ORcq0w42bvxAeRG-26" value="Shopping Cart" style="whiteSpace=wrap;html=1;fillColor=light-dark(#639CD1,#000000);rounded=1;glass=0;strokeWidth=1;shadow=0;" parent="WIyWlLk6GJQsqaUBKTNV-1" vertex="1">
          <mxGeometry x="460" y="900" width="120" height="60" as="geometry" />
        </mxCell>
        <mxCell id="u7ZP3ORcq0w42bvxAeRG-32" style="edgeStyle=orthogonalEdgeStyle;rounded=0;orthogonalLoop=1;jettySize=auto;html=1;exitX=0.5;exitY=0;exitDx=0;exitDy=0;entryX=0;entryY=0;entryDx=0;entryDy=0;" parent="WIyWlLk6GJQsqaUBKTNV-1" source="u7ZP3ORcq0w42bvxAeRG-30" target="WIyWlLk6GJQsqaUBKTNV-11" edge="1">
          <mxGeometry relative="1" as="geometry">
            <Array as="points">
              <mxPoint x="-30" y="400" />
              <mxPoint x="160" y="400" />
            </Array>
          </mxGeometry>
        </mxCell>
        <mxCell id="u7ZP3ORcq0w42bvxAeRG-36" value="yes" style="edgeLabel;html=1;align=center;verticalAlign=middle;resizable=0;points=[];" parent="u7ZP3ORcq0w42bvxAeRG-32" vertex="1" connectable="0">
          <mxGeometry x="-0.2" relative="1" as="geometry">
            <mxPoint x="12" y="-10" as="offset" />
          </mxGeometry>
        </mxCell>
        <mxCell id="u7ZP3ORcq0w42bvxAeRG-30" value="Home&lt;div&gt;Clicked&lt;/div&gt;" style="rhombus;whiteSpace=wrap;html=1;fillColor=light-dark(#6CC29C,#000000);rounded=1;glass=0;strokeWidth=1;shadow=0;" parent="WIyWlLk6GJQsqaUBKTNV-1" vertex="1">
          <mxGeometry x="-70" y="420" width="80" height="80" as="geometry" />
        </mxCell>
        <mxCell id="KHbmAOxIONu6uDPBs_3P-0" value="Checkout&lt;div&gt;Delete Item&lt;/div&gt;" style="shape=process;whiteSpace=wrap;html=1;backgroundOutline=1;fillColor=light-dark(#FF706B,#000000);rounded=1;glass=0;strokeWidth=1;shadow=0;" vertex="1" parent="WIyWlLk6GJQsqaUBKTNV-1">
          <mxGeometry x="700" y="900" width="170" height="60" as="geometry" />
        </mxCell>
        <mxCell id="KHbmAOxIONu6uDPBs_3P-8" style="edgeStyle=orthogonalEdgeStyle;rounded=0;orthogonalLoop=1;jettySize=auto;html=1;exitX=0.5;exitY=1;exitDx=0;exitDy=0;entryX=0.5;entryY=0;entryDx=0;entryDy=0;" edge="1" parent="WIyWlLk6GJQsqaUBKTNV-1" source="KHbmAOxIONu6uDPBs_3P-2" target="KHbmAOxIONu6uDPBs_3P-6">
          <mxGeometry relative="1" as="geometry" />
        </mxCell>
        <mxCell id="KHbmAOxIONu6uDPBs_3P-2" value="Products Clicked" style="rhombus;whiteSpace=wrap;html=1;fillColor=light-dark(#6CC29C,#000000);rounded=1;glass=0;strokeWidth=1;shadow=0;" vertex="1" parent="WIyWlLk6GJQsqaUBKTNV-1">
          <mxGeometry y="700" width="80" height="80" as="geometry" />
        </mxCell>
        <mxCell id="KHbmAOxIONu6uDPBs_3P-4" value="Yes" style="edgeLabel;html=1;align=center;verticalAlign=middle;resizable=0;points=[];" vertex="1" connectable="0" parent="WIyWlLk6GJQsqaUBKTNV-1">
          <mxGeometry x="50" y="840" as="geometry" />
        </mxCell>
        <mxCell id="KHbmAOxIONu6uDPBs_3P-5" value="" style="edgeStyle=orthogonalEdgeStyle;rounded=0;orthogonalLoop=1;jettySize=auto;html=1;" edge="1" parent="WIyWlLk6GJQsqaUBKTNV-1" source="KHbmAOxIONu6uDPBs_3P-6" target="KHbmAOxIONu6uDPBs_3P-7">
          <mxGeometry relative="1" as="geometry" />
        </mxCell>
        <mxCell id="KHbmAOxIONu6uDPBs_3P-6" value="Products" style="whiteSpace=wrap;html=1;fillColor=light-dark(#639CD1,#000000);rounded=1;glass=0;strokeWidth=1;shadow=0;" vertex="1" parent="WIyWlLk6GJQsqaUBKTNV-1">
          <mxGeometry x="-20" y="917" width="120" height="60" as="geometry" />
        </mxCell>
        <mxCell id="KHbmAOxIONu6uDPBs_3P-7" value="Add to Cart&lt;div&gt;Change Qtt Input&lt;/div&gt;&lt;div&gt;Change Qtt Btn +/-&lt;/div&gt;" style="shape=process;whiteSpace=wrap;html=1;backgroundOutline=1;fillColor=light-dark(#FF706B,#000000);rounded=1;glass=0;strokeWidth=1;shadow=0;" vertex="1" parent="WIyWlLk6GJQsqaUBKTNV-1">
          <mxGeometry x="-300" y="917" width="170" height="60" as="geometry" />
        </mxCell>
      </root>
    </mxGraphModel>
  </diagram>
</mxfile>
